<?xml version="1.0" standalone="no"?>
<!DOCTYPE svg PUBLIC "-//W3C//DTD SVG 20010904//EN"
 "http://www.w3.org/TR/2001/REC-SVG-20010904/DTD/svg10.dtd">
<svg version="1.0" xmlns="http://www.w3.org/2000/svg"
 width="242.000000pt" height="242.000000pt" viewBox="0 0 242.000000 242.000000"
 preserveAspectRatio="xMidYMid meet">
<metadata>
Created by potrace 1.11, written by Peter Selinger 2001-2013
</metadata>
<g transform="translate(0.000000,242.000000) scale(0.100000,-0.100000)"
fill="#000000" stroke="none">
<path d="M1731 2368 c-28 -7 -61 -28 -93 -58 -47 -43 -50 -47 -37 -68 8 -12
19 -22 25 -22 7 0 19 -11 28 -25 9 -14 24 -25 34 -25 9 0 22 -10 27 -22 6 -13
20 -24 32 -26 15 -2 40 -27 70 -70 26 -37 62 -83 80 -102 18 -19 33 -40 33
-46 0 -7 8 -15 17 -18 27 -11 104 73 132 144 22 55 23 66 13 119 -13 70 -39
113 -101 164 -66 54 -172 76 -260 55z"/>
<path d="M519 2340 c-175 -90 -217 -295 -92 -458 l25 -34 52 55 c79 84 92 100
110 135 19 37 93 95 112 88 13 -5 32 12 33 29 1 6 14 14 31 18 20 5 30 14 30
26 0 24 23 43 43 35 15 -5 17 5 8 58 0 4 -16 15 -33 25 -118 63 -226 71 -319
23z"/>
<path d="M900 1791 c-78 -16 -134 -64 -173 -148 -19 -42 -22 -61 -17 -102 10
-79 50 -129 140 -173 111 -54 111 -54 142 -3 l26 43 -26 -9 c-23 -7 -54 -7
-72 2 -3 1 -11 3 -19 3 -8 1 -22 21 -33 46 -17 41 -17 43 -1 24 38 -45 128
-60 165 -28 12 10 18 13 13 5 -5 -8 8 -2 28 13 101 77 62 242 -77 323 -23 14
-43 14 -96 4z m50 -156 c15 -18 6 -45 -13 -45 -20 0 -40 27 -33 45 7 19 30 19
46 0z m120 -60 c0 -17 -2 -17 -10 -5 -5 8 -10 24 -10 35 0 17 2 17 10 5 5 -8
10 -24 10 -35z"/>
<path d="M1414 1715 c-57 -60 -81 -126 -71 -191 6 -37 31 -69 46 -59 6 3 14
-2 19 -11 9 -16 42 -21 142 -24 25 0 -3 -19 -40 -25 -19 -3 -36 -8 -38 -10 -5
-5 37 -75 45 -75 19 0 150 79 176 107 157 166 64 343 -181 343 -43 0 -50 -4
-98 -55z m159 -101 c-3 -14 -34 -17 -45 -6 -6 6 -8 18 -4 27 6 16 9 16 29 2
12 -8 21 -18 20 -23z m-172 -11 c-8 -15 -10 -15 -11 -2 0 17 10 32 18 25 2 -3
-1 -13 -7 -23z m269 -89 c0 -2 -7 -4 -15 -4 -8 0 -15 4 -15 10 0 5 7 7 15 4 8
-4 15 -8 15 -10z"/>
<path d="M1154 1307 c-39 -34 -27 -77 32 -118 38 -26 43 -34 38 -57 -10 -48
-12 -50 -41 -54 -15 -3 4 -4 42 -4 39 0 59 3 45 6 -21 5 -25 12 -24 42 1 29
10 44 48 80 44 42 55 69 38 94 -27 41 -136 47 -178 11z"/>
<path d="M1798 1222 c-3 -9 -89 -70 -124 -88 -11 -6 -32 -14 -46 -17 -43 -11
-75 -52 -80 -105 -3 -26 -12 -63 -21 -82 -8 -19 -18 -45 -22 -57 -3 -13 -9
-22 -13 -22 -18 3 -52 -15 -52 -27 0 -7 -20 -34 -45 -60 -41 -42 -45 -44 -46
-22 -1 22 -1 22 -10 -4 -11 -28 -19 -31 -111 -43 -36 -5 -48 -3 -48 7 0 10 -2
10 -9 0 -5 -9 -21 -12 -44 -9 -26 3 -49 19 -93 65 -99 101 -124 130 -124 142
0 6 -4 8 -10 5 -9 -6 -14 7 -11 27 0 4 -6 5 -13 2 -18 -7 -27 22 -31 94 -2 51
-5 58 -31 73 -16 9 -47 26 -69 39 -22 13 -59 33 -82 46 l-42 24 -10 -33 c-6
-17 -15 -77 -21 -132 -12 -106 -15 -123 -32 -168 l-11 -27 -76 6 c-64 5 -85 3
-131 -16 -65 -25 -116 -70 -140 -123 -22 -49 -17 -162 10 -223 41 -94 171
-200 274 -223 52 -11 56 -15 56 -40 0 -42 27 -111 54 -138 14 -14 55 -35 92
-48 57 -20 87 -23 203 -24 125 -1 159 4 289 36 12 3 48 -2 80 -10 127 -34 384
-41 446 -12 47 22 88 79 112 155 21 66 18 65 118 75 79 8 175 54 220 106 19
23 46 69 59 103 22 54 24 68 16 124 -11 75 -28 112 -79 164 -54 53 -94 68
-189 68 l-80 0 -11 38 c-9 31 -24 134 -46 320 -5 38 -17 55 -26 34z"/>
<path d="M1363 1138 c-20 -26 -26 -41 -15 -34 12 7 36 46 29 46 -3 0 -9 -6
-14 -12z"/>
<path d="M1114 1096 c11 -9 24 -16 30 -16 12 0 7 5 -24 19 -24 11 -24 11 -6
-3z"/>
<path d="M1310 1090 c-9 -6 -10 -10 -3 -10 6 0 15 5 18 10 8 12 4 12 -15 0z"/>
</g>
</svg>
